<?xml version="1.0" encoding="UTF-8"?>
<svg id="Layer_1" data-name="Layer 1" xmlns="http://www.w3.org/2000/svg" viewBox="0 0 617.45 239.31">
  <defs>
    <style>
      .cls-1 {
        fill: #231f20;
      }

      .cls-2 {
        fill: #ec1c24;
      }
    </style>
  </defs>
  <polygon class="cls-1" points="233.18 153.05 222.42 179.15 64.87 179.15 75.29 153.05 233.18 153.05"/>
  <polygon class="cls-1" points="51.02 221.4 45.46 239.31 198.81 239.31 205.06 221.4 51.02 221.4"/>
  <g>
    <path class="cls-1" d="M154.74,42.48c5.79-2.93,12.24-4.38,19.35-4.38,8.37,0,15.94,2,22.71,6.02,6.77,4.02,12.1,9.72,16,17.12,3.9,7.4,5.85,15.85,5.85,25.38s-1.95,18.04-5.85,25.55c-3.9,7.52-9.26,13.36-16.09,17.55-6.82,4.19-14.36,6.28-22.62,6.28-7.34,0-13.85-1.44-19.53-4.3-5.68-2.87-10.18-6.54-13.51-11.01v13.76h-19.61V7.13h19.61v46.62c3.33-4.58,7.88-8.34,13.68-11.27ZM194.65,69.67c-2.7-4.76-6.25-8.37-10.67-10.84-4.42-2.46-9.15-3.7-14.19-3.7s-9.61,1.26-14.02,3.78c-4.42,2.53-7.97,6.2-10.67,11.01-2.7,4.81-4.04,10.49-4.04,17.03s1.35,12.24,4.04,17.12,6.25,8.57,10.67,11.09c4.41,2.53,9.09,3.78,14.02,3.78s9.78-1.29,14.19-3.87c4.41-2.58,7.97-6.33,10.67-11.27,2.69-4.93,4.04-10.67,4.04-17.2s-1.35-12.19-4.04-16.95Z"/>
    <path class="cls-1" d="M313.28,39.64l-58.15,139.36h-20.3l19.27-46.11-37.33-93.25h21.85l26.67,72.26,27.7-72.26h20.3Z"/>
    <path class="cls-1" d="M347.68,7.13v127.31h-19.61V7.13h19.61Z"/>
    <path class="cls-1" d="M393.1,39.64v94.8h-19.61V39.64h19.61Z"/>
    <path class="cls-1" d="M486.78,42.74c5.9,3.1,10.52,7.68,13.85,13.76,3.33,6.08,4.99,13.42,4.99,22.02v55.91h-19.44v-52.99c0-8.49-2.12-14.99-6.37-19.53-4.25-4.53-10.04-6.79-17.38-6.79s-13.16,2.27-17.46,6.79c-4.3,4.54-6.45,11.04-6.45,19.53v52.99h-19.61V39.64h19.61v10.84c3.21-3.9,7.31-6.94,12.3-9.12,4.99-2.17,10.29-3.27,15.91-3.27,7.45,0,14.13,1.55,20.04,4.64Z"/>
    <path class="cls-1" d="M616.76,94.35h-72.43c.57,7.57,3.38,13.65,8.43,18.24,5.04,4.59,11.24,6.88,18.58,6.88,10.55,0,18.01-4.41,22.37-13.25h21.16c-2.87,8.72-8.06,15.86-15.57,21.42-7.51,5.56-16.83,8.34-27.96,8.34-9.06,0-17.18-2.04-24.34-6.11-7.17-4.07-12.79-9.81-16.86-17.2s-6.11-15.97-6.11-25.72,1.98-18.32,5.93-25.72c3.96-7.4,9.52-13.1,16.69-17.12,7.17-4.01,15.4-6.02,24.69-6.02s16.92,1.95,23.91,5.84c6.99,3.9,12.44,9.38,16.35,16.43,3.9,7.05,5.85,15.17,5.85,24.34,0,3.56-.23,6.77-.69,9.64ZM596.97,78.53c-.11-7.23-2.7-13.02-7.74-17.38-5.05-4.36-11.3-6.54-18.75-6.54-6.77,0-12.56,2.15-17.38,6.45-4.82,4.3-7.69,10.12-8.6,17.46h52.47Z"/>
  </g>
  <path class="cls-2" d="M368.84,14.22c0,7.85,6.37,14.22,14.22,14.22s14.22-6.37,14.22-14.22-6.37-14.22-14.22-14.22-14.22,6.37-14.22,14.22"/>
  <path class="cls-2" d="M55.08,187.22c-.49,1.18-.98,2.36-1.48,3.54.97,1.01,2.43,2.32,2.92,3.02,4.36,6.27-.17,15.48-7.58,16.5-10.51,1.45-16.31-11.99-8.39-18.92l-.92-2.01c-3.64,2.31-6.13,6.28-6.13,10.92,0,7.21,5.84,13.05,13.05,13.05h161.13l11.35-26.1H55.08Z"/>
  <g>
    <polygon class="cls-1" points="63.84 7.95 19.75 8.93 19.91 33.45 64.27 32.29 63.84 7.95"/>
    <path class="cls-1" d="M47.73,108.81c-1.2,1.27-3.2,1.32-4.47.12-1.27-1.21-1.32-3.21-.12-4.48,1.2-1.27,3.21-1.32,4.47-.12,1.27,1.21,1.32,3.21.12,4.48M46.72,111.24c1.67-1,3.33-2.5,3.27-4.62-.16-4.91-6.52-6.46-8.86-1.85-1.15,2.27.53,5.82,3.06,6.38l2.18,81.3c0,1.08,1.29.72,2.02.62l-1.67-81.83Z"/>
    <path class="cls-1" d="M44.33,203.11c1.93,1.83,4.98,1.75,6.81-.18,1.83-1.93,1.75-4.98-.18-6.81s-4.98-1.75-6.8.18c-1.83,1.93-1.75,4.98.18,6.81"/>
    <path class="cls-1" d="M47.63,209.02c-3.59,0-6.75-2.06-8.29-5.5-1.66-3.73-.89-7.79,1.93-10.54v-.09s-3.72-8.06-3.72-8.06C26.3,160.44,14.67,135.21.2,112.04c-.22-.35-.27-.79-.12-1.18,7.25-19.36,12.1-35.29,15.27-50.13.6-2.8,1.1-5.63,1.6-8.46.83-4.71,1.7-9.58,3.02-14.3.16-.57.67-.97,1.27-.98l43.15-.78c.31.03.6.09.84.28.26.2.61.62.67.95,4.41,23.32,11.78,47.64,22.55,74.34.15.37.13.79-.06,1.14-10.81,19.95-19.62,41.28-28.15,61.91-2.39,5.78-4.78,11.56-7.21,17.31.27.3.67.68.95.95.61.6,1.2,1.19,1.46,1.57,1.72,2.46,1.98,5.69.69,8.62-1.33,3.05-4.1,5.22-7.2,5.65-.44.06-.88.09-1.31.09ZM2.83,111.18c14.4,23.16,25.97,48.26,37.16,72.54l3.81,8.26c.07.14.11.3.12.45l.08.98c.04.44-.14.86-.47,1.14-2.82,2.38-2.7,5.73-1.74,7.88.97,2.17,3.23,4.29,6.78,3.85,2.19-.31,4.15-1.87,5.11-4.07.9-2.08.74-4.32-.44-6.02-.2-.29-.67-.73-1.13-1.18-1.32-1.29-2.05-2-1.91-2.95.02-.11.05-.22.09-.33,2.52-5.96,5-11.95,7.47-17.94,8.47-20.5,17.23-41.69,27.97-61.61-10.56-26.27-17.85-50.25-22.28-73.28l-41.16.74c-1.15,4.3-1.94,8.76-2.7,13.08-.51,2.86-1.01,5.72-1.62,8.56h0c-3.17,14.81-7.98,30.68-15.15,49.88Z"/>
  </g>
</svg>